<svg width="40" height="40" viewBox="0 0 40 40" fill="none" xmlns="http://www.w3.org/2000/svg">
<path d="M20.0002 8.33331C13.5668 8.33331 8.3335 13.5666 8.3335 20C8.3335 26.4333 13.5668 31.6666 20.0002 31.6666C26.4335 31.6666 31.6668 26.4333 31.6668 20C31.6668 13.5666 26.4335 8.33331 20.0002 8.33331ZM20.0002 30C14.486 30 10.0002 25.5141 10.0002 20C10.0002 14.4858 14.486 9.99998 20.0002 9.99998C25.5143 9.99998 30.0002 14.4858 30.0002 20C30.0002 25.5141 25.5143 30 20.0002 30Z" fill="black"/>
<path d="M24.4107 16.0775L18.3332 22.155L15.5882 19.4108C15.2624 19.085 14.7357 19.085 14.4099 19.4108C14.0841 19.7367 14.0841 20.2642 14.4099 20.5892L17.7441 23.9225C17.9074 24.085 18.1207 24.1667 18.3332 24.1667C18.5457 24.1667 18.7599 24.085 18.9224 23.9225L25.5891 17.2558C25.9149 16.93 25.9149 16.4033 25.5891 16.0775C25.2632 15.7517 24.7366 15.7517 24.4107 16.0775Z" fill="black"/>
<path d="M36.5583 17.2891C36.215 17.035 36.1083 16.5325 36.3358 16.1708C37.15 14.8758 38.3325 12.1558 34.2608 11.1583C33.8458 11.0566 33.5383 10.6275 33.6267 10.2108C34.0175 8.38248 33.47 5.72748 29.79 6.37415C29.3708 6.44748 28.925 6.15915 28.8425 5.73998C28.5667 4.33831 27.3783 1.49915 23.8308 3.66415C23.4658 3.88665 22.8842 3.76581 22.7125 3.44081C22.1617 2.39998 19.7492 -2.12193e-05 17.2875 3.44081C17.0392 3.78831 16.4683 3.87748 16.1692 3.66331C14.5542 2.50665 11.945 2.21748 11.1567 5.73831C11.0658 6.14248 10.6358 6.45248 10.2083 6.37165C8.79665 6.10331 5.69832 6.19165 6.37415 10.2083C6.44499 10.6291 6.16249 11.0933 5.74082 11.1566C4.09665 11.4025 1.56165 12.7233 3.66415 16.1683C3.88665 16.5325 3.82249 17.0941 3.44165 17.2866C1.98249 18.0241 0.311652 20.6475 3.44165 22.7141C3.79749 22.9491 3.88665 23.455 3.66415 23.8191C1.56165 27.2641 4.09665 28.5841 5.74082 28.8308C6.16332 28.8941 6.44499 29.3583 6.37415 29.7791C5.69832 33.7958 8.79665 33.8841 10.21 33.615C10.6375 33.5333 11.0675 33.8441 11.1583 34.2483C11.9467 37.77 14.5558 37.48 16.1708 36.3233C16.47 36.1091 17.0408 36.1983 17.2892 36.5458C19.7508 39.9875 22.1633 37.5875 22.7142 36.5458C22.8858 36.2216 23.4675 36.1 23.8325 36.3225C27.38 38.4875 28.5683 35.6483 28.8442 34.2466C28.9267 33.8275 29.3725 33.5391 29.7917 33.6125C33.4717 34.2591 34.0183 31.6041 33.6283 29.7758C33.5392 29.3591 33.8475 28.93 34.2625 28.8283C38.335 27.8308 37.1525 25.1108 36.3375 23.8158C36.11 23.4541 36.2083 22.9408 36.5583 22.6991C37.6466 21.9466 40 19.8358 36.5583 17.2891ZM35.3683 25.5925C35.6517 26.0483 35.4767 26.675 34.8316 26.8875C33.65 27.2775 31.4725 27.5983 32.0533 31.0475C32.1642 31.7033 31.8133 32.0958 31.0616 32.0383C29.9183 31.9508 27.5642 31.4883 26.9033 34.8175C26.7725 35.475 26.1283 35.6175 25.6083 35.355C23.365 34.2225 22.4675 34.0775 20.7025 36.3308C20.365 36.7616 19.6617 36.7433 19.3 36.3308C18.3517 35.25 17.2775 33.5883 14.3933 35.3558C13.8917 35.6633 13.32 35.4258 13.0983 34.8191C12.5225 33.2391 12.3525 31.555 8.93915 32.0408C8.41249 32.1158 7.85415 31.7591 7.94832 31.05C8.12749 29.6933 8.33332 27.515 5.16832 26.89C4.67999 26.7933 4.29832 26.1416 4.63165 25.595C5.89582 23.5275 5.72082 22.2341 3.63749 20.68C3.40249 20.505 3.01999 19.7525 3.65582 19.2975C5.68499 17.8458 5.89582 16.46 4.63165 14.3916C4.29749 13.845 4.67999 13.1925 5.16832 13.0966C8.33332 12.4716 8.12749 10.2933 7.94832 8.93665C7.85415 8.22748 8.41332 7.87081 8.93915 7.94581C12.3525 8.43081 12.5225 6.74748 13.0983 5.16748C13.3192 4.55998 13.8917 4.32331 14.3933 4.63081C17.2783 6.39831 18.3525 4.73665 19.3 3.65581C19.6617 3.24331 20.3642 3.22498 20.7025 3.65581C22.4675 5.90915 23.365 5.76415 25.6083 4.63165C26.1283 4.36915 26.7725 4.51165 26.9033 5.16915C27.5642 8.49831 29.9183 8.03581 31.0616 7.94831C31.8141 7.89081 32.1642 8.28331 32.0533 8.93915C31.4725 12.3891 33.65 12.7091 34.8316 13.0991C35.4767 13.3116 35.6517 13.9391 35.3683 14.3941C33.515 17.3708 35.4733 18.5541 36.3442 19.3008C36.6842 19.5925 36.88 20.2816 36.4225 20.6383C35.3817 21.3583 33.515 22.6158 35.3683 25.5925Z" fill="black"/>
</svg>
