<svg width="40" height="40" viewBox="0 0 40 40" fill="none" xmlns="http://www.w3.org/2000/svg">
<path d="M17.8125 27.5C17.8125 27.7486 17.7137 27.9871 17.5379 28.1629C17.3621 28.3387 17.1236 28.4375 16.875 28.4375H12.5C12.2514 28.4375 12.0129 28.3387 11.8371 28.1629C11.6613 27.9871 11.5625 27.7486 11.5625 27.5C11.5625 27.2513 11.6613 27.0129 11.8371 26.8371C12.0129 26.6613 12.2514 26.5625 12.5 26.5625H16.875C17.1236 26.5625 17.3621 26.6613 17.5379 26.8371C17.7137 27.0129 17.8125 27.2513 17.8125 27.5ZM27.5 26.5625H23.125C22.8764 26.5625 22.6379 26.6613 22.4621 26.8371C22.2863 27.0129 22.1875 27.2513 22.1875 27.5C22.1875 27.7486 22.2863 27.9871 22.4621 28.1629C22.6379 28.3387 22.8764 28.4375 23.125 28.4375H27.5C27.7486 28.4375 27.9871 28.3387 28.1629 28.1629C28.3387 27.9871 28.4375 27.7486 28.4375 27.5C28.4375 27.2513 28.3387 27.0129 28.1629 26.8371C27.9871 26.6613 27.7486 26.5625 27.5 26.5625ZM38.4375 33.75C38.4375 33.9986 38.3387 34.2371 38.1629 34.4129C37.9871 34.5887 37.7486 34.6875 37.5 34.6875H2.5C2.25136 34.6875 2.0129 34.5887 1.83709 34.4129C1.66127 34.2371 1.5625 33.9986 1.5625 33.75C1.5625 33.5013 1.66127 33.2629 1.83709 33.0871C2.0129 32.9113 2.25136 32.8125 2.5 32.8125H5.3125V13.75C5.3125 13.5759 5.36098 13.4052 5.45251 13.2571C5.54405 13.109 5.67501 12.9893 5.83074 12.9115C5.98646 12.8336 6.16079 12.8006 6.33419 12.8163C6.50759 12.8319 6.67322 12.8955 6.8125 13L15.3125 19.375V13.75C15.3125 13.5759 15.361 13.4052 15.4525 13.2571C15.544 13.109 15.675 12.9893 15.8307 12.9115C15.9865 12.8336 16.1608 12.8006 16.3342 12.8163C16.5076 12.8319 16.6732 12.8955 16.8125 13L23.2812 17.8562L25.1562 4.69061C25.2336 4.17084 25.4945 3.69595 25.8918 3.35199C26.289 3.00802 26.7964 2.81774 27.3219 2.81561H30.1531C30.6786 2.81774 31.186 3.00802 31.5832 3.35199C31.9805 3.69595 32.2414 4.17084 32.3187 4.69061L34.6625 21.1172C34.6625 21.1172 34.6719 21.2094 34.6719 21.25V32.8125H37.4844C37.6088 32.8104 37.7324 32.8331 37.8479 32.8793C37.9635 32.9255 38.0687 32.9942 38.1574 33.0815C38.2461 33.1688 38.3166 33.2728 38.3647 33.3876C38.4128 33.5023 38.4375 33.6255 38.4375 33.75ZM25 19.139L26.5625 20.3125H32.6688L30.4688 4.95624C30.4581 4.88115 30.4206 4.81249 30.3631 4.76304C30.3056 4.71359 30.2321 4.68674 30.1562 4.68749H27.3344C27.2585 4.68674 27.185 4.71359 27.1275 4.76304C27.07 4.81249 27.0325 4.88115 27.0219 4.95624L25 19.139ZM7.1875 32.8125H32.8125V22.1875H26.25C26.0472 22.1875 25.8498 22.1217 25.6875 22L23.4375 20.3125L17.1875 15.625V21.25C17.1875 21.4241 17.139 21.5948 17.0475 21.7429C16.956 21.891 16.825 22.0107 16.6693 22.0885C16.5135 22.1664 16.3392 22.1993 16.1658 22.1837C15.9924 22.1681 15.8268 22.1045 15.6875 22L7.1875 15.625V32.8125Z" fill="black"/>
</svg>
