<svg width="40" height="40" viewBox="0 0 40 40" fill="none" xmlns="http://www.w3.org/2000/svg">
<path d="M24.5 14C21.95 14 20 15.95 20 18.5C20 21.05 21.95 23 24.5 23C27.05 23 29 21.05 29 18.5C29 15.95 27.05 14 24.5 14ZM24.5 21.5C22.85 21.5 21.5 20.15 21.5 18.5C21.5 16.85 22.85 15.5 24.5 15.5C26.15 15.5 27.5 16.85 27.5 18.5C27.5 20.15 26.15 21.5 24.5 21.5Z" fill="black"/>
<path d="M12.5 8H17V9.5H12.5V8Z" fill="black"/>
<path d="M6.5 8H9.5V9.5H6.5V8Z" fill="black"/>
<path d="M6.5 12.5H14V14H6.5V12.5Z" fill="black"/>
<path d="M6.5 17H12.5V18.5H6.5V17Z" fill="black"/>
<path d="M35 2H5C3.35 2 2 3.35 2 5V29C2 30.65 3.35 32 5 32H15.5V30.5H5C4.1 30.5 3.5 29.9 3.5 29V5C3.5 4.1 4.1 3.5 5 3.5H35C35.9 3.5 36.5 4.1 36.5 5V29C36.5 29.9 35.9 30.5 35 30.5H33.5V32H35C36.65 32 38 30.65 38 29V5C38 3.35 36.65 2 35 2Z" fill="black"/>
<path d="M24.5 9.5C19.55 9.5 15.5 13.55 15.5 18.5C15.5 21.2 16.7 23.6 18.5 25.25V38L24.5 35L30.5 38V25.25C32.3 23.6 33.5 21.2 33.5 18.5C33.5 13.55 29.45 9.5 24.5 9.5ZM29 35.6L24.5 33.35L20 35.6V32V26.3C21.35 27.05 22.85 27.5 24.5 27.5C26.15 27.5 27.65 27.05 29 26.3V35.6ZM24.5 26C20.3 26 17 22.7 17 18.5C17 14.3 20.3 11 24.5 11C28.7 11 32 14.3 32 18.5C32 22.7 28.7 26 24.5 26Z" fill="black"/>
</svg>
