<svg width="40" height="40" viewBox="0 0 40 40" fill="none" xmlns="http://www.w3.org/2000/svg">
<g clip-path="url(#clip0_47_327)">
<path d="M5.9903 36.0001H7.99042V37.9999C7.99042 39.1046 8.8858 40 9.99023 40H33.9905C35.0949 40 35.9903 39.1046 35.9903 37.9999V6.00006C35.9903 4.89532 35.0949 3.99994 33.9905 3.99994H31.9904V2.00012C31.9904 0.895386 31.095 0 29.9902 0H11.3239C11.311 0 11.2991 0.00671387 11.2863 0.00732422C11.2253 0.0106812 11.1649 0.022583 11.1072 0.043335C11.0873 0.0500488 11.0678 0.0576782 11.0489 0.0665283C10.9747 0.0985718 10.907 0.143738 10.849 0.19989L4.18243 6.86676C4.12659 6.92322 4.08142 6.98944 4.04907 7.06207C4.03961 7.08252 4.03442 7.10327 4.0271 7.12463C4.00787 7.17987 3.99628 7.23755 3.99292 7.29614C3.99292 7.31079 3.98438 7.3233 3.98438 7.33795V33.9999C3.98438 34.5316 4.19586 35.0412 4.57214 35.4163C4.94873 35.7916 5.45898 36.0016 5.9903 36.0001ZM33.9905 5.33325C34.3585 5.33325 34.657 5.63171 34.657 6.00006V37.9999C34.657 38.3682 34.3585 38.6667 33.9905 38.6667H9.99023C9.62219 38.6667 9.32373 38.3682 9.32373 37.9999V36.0001H29.9902C31.095 36.0001 31.9904 35.1047 31.9904 33.9999V5.33325H33.9905ZM30.657 2.00012V33.9999C30.657 34.3683 30.3586 34.6667 29.9902 34.6667H5.9903C5.62225 34.6667 5.32379 34.3683 5.32379 33.9999V7.99988H9.99023C11.095 7.99988 11.9904 7.10449 11.9904 6.00006V1.33331H29.9902C30.3586 1.33331 30.657 1.63178 30.657 2.00012ZM10.657 2.276V6.00006C10.657 6.3681 10.3586 6.66656 9.99023 6.66656H6.26648L10.657 2.276Z" fill="black"/>
<path fill-rule="evenodd" clip-rule="evenodd" d="M24.3526 13.0758C24.479 13.2382 24.6731 13.3331 24.8788 13.3331C25.0841 13.3331 25.2782 13.2382 25.4046 13.0758L28.5158 9.0759C28.7322 8.78507 28.6764 8.37461 28.3904 8.15213C28.1045 7.92936 27.6928 7.97635 27.4639 8.25742L24.8788 11.5808L24.5159 11.1139C24.2898 10.8233 23.8708 10.7715 23.5802 10.9976C23.2897 11.224 23.2378 11.6427 23.464 11.9333L24.3526 13.0758Z" fill="black"/>
<path fill-rule="evenodd" clip-rule="evenodd" d="M9.32355 10.6668H8.65674C8.2887 10.6668 7.99023 10.9653 7.99023 11.3333C7.99023 11.7017 8.2887 12.0001 8.65674 12.0001H9.32355C9.69159 12.0001 9.99005 11.7017 9.99005 11.3333C9.99005 10.9653 9.69159 10.6668 9.32355 10.6668Z" fill="black"/>
<path fill-rule="evenodd" clip-rule="evenodd" d="M11.9902 10.6668C11.6222 10.6668 11.3237 10.9653 11.3237 11.3333C11.3237 11.7017 11.6222 12.0001 11.9902 12.0001H19.9901C20.3585 12.0001 20.6569 11.7017 20.6569 11.3333C20.6569 10.9653 20.3585 10.6668 19.9901 10.6668H11.9902Z" fill="black"/>
<path fill-rule="evenodd" clip-rule="evenodd" d="M24.3527 19.0759C24.479 19.2383 24.6731 19.3332 24.8788 19.3332C25.0842 19.3332 25.2782 19.2383 25.4046 19.0759L28.5159 15.076C28.6684 14.8886 28.7078 14.6332 28.6184 14.4086C28.5293 14.1843 28.3254 14.0256 28.0856 13.9941C27.846 13.9627 27.6083 14.0634 27.4639 14.2572L24.8788 17.5806L24.5159 17.114C24.3697 16.926 24.1341 16.8304 23.8982 16.8634C23.6623 16.8961 23.4618 17.0523 23.3721 17.2729C23.2827 17.4936 23.3175 17.7454 23.464 17.9333L24.3527 19.0759Z" fill="black"/>
<path fill-rule="evenodd" clip-rule="evenodd" d="M9.32355 16.6666H8.65674C8.2887 16.6666 7.99023 16.965 7.99023 17.3334C7.99023 17.7014 8.2887 17.9999 8.65674 17.9999H9.32355C9.69159 17.9999 9.99005 17.7014 9.99005 17.3334C9.99005 16.965 9.69159 16.6666 9.32355 16.6666Z" fill="black"/>
<path fill-rule="evenodd" clip-rule="evenodd" d="M19.9901 16.6666H11.9902C11.6222 16.6666 11.3237 16.965 11.3237 17.3334C11.3237 17.7014 11.6222 17.9999 11.9902 17.9999H19.9901C20.3585 17.9999 20.6569 17.7014 20.6569 17.3334C20.6569 16.965 20.3585 16.6666 19.9901 16.6666Z" fill="black"/>
<path fill-rule="evenodd" clip-rule="evenodd" d="M24.3526 25.076C24.479 25.2383 24.6731 25.3329 24.8788 25.3329C25.0841 25.3329 25.2782 25.2383 25.4046 25.076L28.5158 21.076C28.6684 20.8887 28.7078 20.6332 28.6184 20.4086C28.5293 20.184 28.3254 20.0256 28.0855 19.9942C27.846 19.9628 27.6083 20.0635 27.4639 20.2573L24.8788 23.5806L24.5159 23.114C24.2898 22.8235 23.8708 22.7713 23.5802 22.9977C23.2897 23.2239 23.2378 23.6429 23.464 23.9334L24.3526 25.076Z" fill="black"/>
<path fill-rule="evenodd" clip-rule="evenodd" d="M9.32355 22.6666H8.65674C8.2887 22.6666 7.99023 22.9651 7.99023 23.3334C7.99023 23.7015 8.2887 23.9999 8.65674 23.9999H9.32355C9.69159 23.9999 9.99005 23.7015 9.99005 23.3334C9.99005 22.9651 9.69159 22.6666 9.32355 22.6666Z" fill="black"/>
<path fill-rule="evenodd" clip-rule="evenodd" d="M19.9901 22.6666H11.9902C11.6222 22.6666 11.3237 22.9651 11.3237 23.3334C11.3237 23.7015 11.6222 23.9999 11.9902 23.9999H19.9901C20.3585 23.9999 20.6569 23.7015 20.6569 23.3334C20.6569 22.9651 20.3585 22.6666 19.9901 22.6666Z" fill="black"/>
<path fill-rule="evenodd" clip-rule="evenodd" d="M24.3526 31.076C24.479 31.2381 24.6731 31.333 24.8788 31.333C25.0841 31.333 25.2782 31.2381 25.4046 31.076L28.5158 27.0761C28.6684 26.8887 28.7078 26.6333 28.6184 26.4087C28.5293 26.1841 28.3254 26.0254 28.0855 25.9939C27.846 25.9625 27.6083 26.0635 27.4639 26.2573L24.8788 29.5807L24.5159 29.1141C24.2898 28.8235 23.8708 28.7713 23.5802 28.9978C23.2897 29.2239 23.2378 29.6429 23.464 29.9335L24.3526 31.076Z" fill="black"/>
<path fill-rule="evenodd" clip-rule="evenodd" d="M9.32355 28.6667H8.65674C8.2887 28.6667 7.99023 28.9651 7.99023 29.3332C7.99023 29.7015 8.2887 30 8.65674 30H9.32355C9.69159 30 9.99005 29.7015 9.99005 29.3332C9.99005 28.9651 9.69159 28.6667 9.32355 28.6667Z" fill="black"/>
<path fill-rule="evenodd" clip-rule="evenodd" d="M19.9901 28.6667H11.9902C11.6222 28.6667 11.3237 28.9651 11.3237 29.3332C11.3237 29.7015 11.6222 30 11.9902 30H19.9901C20.3585 30 20.6569 29.7015 20.6569 29.3332C20.6569 28.9651 20.3585 28.6667 19.9901 28.6667Z" fill="black"/>
</g>
<defs>
<clipPath id="clip0_47_327">
<rect width="40" height="40" fill="white"/>
</clipPath>
</defs>
</svg>
